<?xml version="1.0" standalone="no"?>
<!DOCTYPE svg PUBLIC "-//W3C//DTD SVG 20010904//EN"
 "http://www.w3.org/TR/2001/REC-SVG-20010904/DTD/svg10.dtd">
<svg version="1.0" xmlns="http://www.w3.org/2000/svg"
 width="340.339786pt" height="351.757624pt" viewBox="0 0 340.339786 351.757624"
 preserveAspectRatio="xMidYMid meet">
<metadata>
Created by potrace 1.16, written by Peter Selinger 2001-2019
</metadata>
<g transform="translate(-63.386943,416.757624) scale(0.100000,-0.100000)"
fill="#3B3B3B" stroke="none">
<path d="M2546 4146 c-50 -13 -126 -43 -170 -65 -90 -46 -186 -113 -170 -118
6 -2 44 10 85 27 295 123 546 101 725 -62 171 -157 254 -398 254 -740 0 -166
-20 -319 -65 -493 -177 -690 -532 -1218 -1063 -1585 l-63 -44 62 -23 c34 -13
69 -23 79 -23 22 0 173 99 260 170 360 294 714 826 880 1320 109 326 166 705
142 949 -18 184 -78 391 -133 459 -31 38 -154 122 -244 166 -118 58 -203 77
-355 82 -120 4 -145 2 -224 -20z"/>
<path d="M2135 3924 c-16 -13 -25 -24 -20 -24 14 1 61 38 55 43 -3 3 -18 -6
-35 -19z"/>
<path d="M2290 3931 c-47 -10 -110 -28 -140 -40 -39 -15 -56 -17 -61 -9 -22
36 -388 -310 -532 -504 -272 -363 -471 -821 -537 -1232 -15 -88 -11 -96 48
-96 48 0 67 26 81 111 47 289 187 679 343 952 75 133 199 318 285 425 84 105
256 286 247 260 -7 -22 1 -22 81 -3 112 27 254 18 365 -24 266 -101 428 -470
391 -893 -46 -520 -284 -1031 -654 -1407 -98 -99 -235 -207 -329 -261 -32 -17
-58 -35 -58 -40 0 -15 118 -52 142 -44 32 10 158 95 243 164 297 243 584 660
730 1063 72 200 115 404 135 645 29 338 -60 627 -245 801 -105 98 -204 138
-360 146 -66 4 -113 0 -175 -14z"/>
<path d="M1970 3698 c-33 -13 -80 -67 -80 -94 0 -10 14 -14 43 -14 58 -1 152
-22 210 -48 154 -69 269 -223 329 -443 33 -120 33 -392 0 -554 -33 -164 -95
-345 -171 -502 -38 -77 -72 -160 -76 -184 -9 -55 -61 -211 -86 -262 -24 -46
-8 -48 30 -4 155 176 307 434 395 670 154 412 166 832 32 1110 -70 146 -196
261 -336 307 -80 27 -238 36 -290 18z"/>
<path d="M1694 3616 c-367 -264 -662 -692 -807 -1171 -48 -157 -85 -349 -74
-378 8 -21 79 -24 94 -4 5 6 15 50 23 97 37 246 151 572 280 802 125 223 246
383 432 573 70 71 126 130 125 131 -1 1 -34 -22 -73 -50z"/>
<path d="M1826 3486 c-27 -20 -174 -265 -251 -416 -156 -308 -262 -618 -315
-917 -17 -94 -13 -103 50 -103 55 0 90 23 90 61 0 68 98 434 157 584 19 50 56
171 81 270 34 131 51 181 63 183 21 4 121 -64 202 -138 77 -71 86 -61 32 36
-35 63 -111 147 -175 195 l-35 26 24 52 c14 28 28 51 33 51 35 0 132 -62 193
-124 128 -128 180 -271 195 -536 6 -108 14 -173 28 -216 11 -34 26 -98 33
-143 10 -65 15 -79 25 -69 15 16 59 188 74 297 18 123 8 366 -19 461 -72 247
-221 402 -435 450 -23 5 -41 4 -50 -4z"/>
<path d="M3727 3336 c-26 -401 -175 -892 -387 -1279 -179 -325 -365 -574 -590
-791 -103 -99 -254 -217 -343 -269 -27 -16 -47 -30 -45 -32 11 -10 135 -55
153 -55 27 0 161 89 275 184 354 293 719 809 930 1312 98 232 190 524 190 600
0 25 -13 80 -31 127 -37 99 -130 297 -139 297 -4 0 -10 -42 -13 -94z"/>
<path d="M1330 3366 c-63 -46 -240 -232 -306 -322 -186 -252 -310 -532 -371
-840 -30 -150 -29 -154 34 -154 37 0 33 -8 58 135 73 412 270 802 561 1105 52
53 94 100 94 104 0 14 -28 3 -70 -28z"/>
<path d="M3961 2494 c-71 -163 -214 -440 -303 -587 -248 -412 -549 -747 -891
-996 -48 -35 -86 -65 -85 -67 10 -10 145 -54 165 -54 16 0 65 29 127 74 274
201 546 494 785 846 110 162 267 426 277 465 7 28 -13 348 -25 391 -6 24 -11
17 -50 -72z"/>
<path d="M3898 1603 c-245 -339 -539 -643 -800 -827 -38 -26 -68 -51 -68 -56
0 -8 163 -70 184 -70 20 0 178 122 310 239 66 58 173 164 238 236 l119 130 34
110 c31 99 85 318 85 344 0 27 -24 2 -102 -106z"/>
</g>
</svg>
